<?xml version="1.0" encoding="utf-8"?><!DOCTYPE svg PUBLIC "-//W3C//DTD SVG 1.1//EN" "http://www.w3.org/Graphics/SVG/1.1/DTD/svg11.dtd"><svg width="64" height="64" viewBox="0 0 64 64" xmlns="http://www.w3.org/2000/svg" xmlns:xlink="http://www.w3.org/1999/xlink"><svg width="32" height="32" viewBox="0 0 32 32" id="facebook"><path d="M26.667 0H5.333C2.388 0 0 2.388 0 5.334v21.332C0 29.612 2.387 32 5.333 32H16V18h-4v-4h4v-3c0-2.76 2.24-5 5-5h5v4h-5c-.552 0-1 .448-1 1v3h5.5l-1 4H20v14h6.667C29.612 32 32 29.612 32 26.666V5.334C32 2.388 29.613 0 26.667 0z" fill="#444"/></svg><svg width="32" height="32" viewBox="0 0 32 32" id="linkedin" x="32"><path d="M26.625 0H5.375C2.42 0 0 2.42 0 5.375v21.25C0 29.58 2.42 32 5.375 32h21.25C29.58 32 32 29.58 32 26.625V5.375C32 2.42 29.58 0 26.625 0zM12 26H8V12h4v14zm-2-16c-1.105 0-2-.895-2-2s.895-2 2-2 2 .895 2 2-.895 2-2 2zm16 16h-4v-8c0-1.105-.895-2-2-2s-2 .895-2 2v8h-4V12h4v2.483C18.825 13.35 20.086 12 21.5 12c2.485 0 4.5 2.24 4.5 5v9z" fill="#444"/></svg><svg width="32" height="32" viewBox="0 0 32 32" id="pinterest" y="32"><path d="M16 0C7.163 0 0 7.163 0 16c0 6.778 4.217 12.568 10.17 14.9-.14-1.267-.267-3.21.054-4.59.29-1.25 1.876-7.954 1.876-7.954s-.48-.958-.48-2.375c0-2.224 1.29-3.885 2.896-3.885 1.365 0 2.024 1.025 2.024 2.254 0 1.372-.874 3.424-1.325 5.326-.377 1.593.8 2.892 2.37 2.892 2.843 0 5.03-3 5.03-7.327 0-3.83-2.754-6.508-6.684-6.508-4.55 0-7.224 3.415-7.224 6.943 0 1.375.53 2.85 1.19 3.65.132.16.15.298.112.46-.12.506-.39 1.593-.444 1.815-.07.293-.232.355-.535.214-2-.93-3.25-3.852-3.25-6.198 0-5.047 3.668-9.682 10.573-9.682 5.55 0 9.864 3.955 9.864 9.24 0 5.515-3.477 9.953-8.302 9.953-1.62 0-3.145-.842-3.667-1.837 0 0-.802 3.055-.997 3.803-.36 1.39-1.336 3.132-1.988 4.195C12.76 31.75 14.35 32 16 32c8.836 0 16-7.162 16-16S24.837 0 16 0z" fill="#444"/></svg><svg width="32" height="32" viewBox="0 0 32 32" id="twitter" x="32" y="32"><path d="M32 6.076c-1.177.522-2.443.875-3.77 1.034 1.354-.813 2.395-2.1 2.886-3.632-1.27.752-2.674 1.3-4.17 1.593C25.75 3.796 24.044 3 22.157 3c-3.627 0-6.566 2.94-6.566 6.565 0 .515.058 1.016.17 1.496-5.456-.275-10.294-2.89-13.532-6.86-.565.97-.89 2.096-.89 3.3 0 2.278 1.16 4.287 2.922 5.465-1.076-.034-2.088-.33-2.974-.82v.082c0 3.18 2.262 5.834 5.265 6.437-.55.15-1.13.23-1.73.23-.422 0-.833-.04-1.234-.118.835 2.608 3.26 4.506 6.133 4.56-2.248 1.76-5.08 2.81-8.155 2.81-.53 0-1.052-.032-1.566-.093 2.904 1.863 6.355 2.95 10.063 2.95 12.076 0 18.68-10.004 18.68-18.68 0-.285-.007-.568-.02-.85C30.006 8.55 31.12 7.394 32 6.077z" fill="#444"/></svg></svg>